<?xml version="1.0" encoding="UTF-8" standalone="no"?>
<!DOCTYPE svg PUBLIC "-//W3C//DTD SVG 1.1//EN" "http://www.w3.org/Graphics/SVG/1.1/DTD/svg11.dtd">
<svg width="100%" height="100%" viewBox="0 0 500 150" version="1.1" xmlns="http://www.w3.org/2000/svg" xmlns:xlink="http://www.w3.org/1999/xlink" xml:space="preserve" xmlns:serif="http://www.serif.com/" style="fill-rule:evenodd;clip-rule:evenodd;stroke-linejoin:round;stroke-miterlimit:2;">
    <g transform="matrix(1,0,0,1,-100.711,-93.6912)">
        <g>
            <g transform="matrix(144,0,0,144,112.176,219.46)">
                <path d="M0.403,-0.655C0.39,-0.684 0.362,-0.7 0.333,-0.7C0.305,-0.7 0.277,-0.684 0.265,-0.655L0.018,-0.105C0.001,-0.068 0.018,-0.023 0.056,-0.007C0.066,-0.002 0.076,-0 0.086,-0C0.115,-0 0.142,-0.016 0.155,-0.044L0.189,-0.12L0.479,-0.12L0.513,-0.044C0.525,-0.016 0.553,-0 0.581,-0C0.591,-0 0.602,-0.002 0.612,-0.007C0.649,-0.023 0.666,-0.068 0.649,-0.105L0.403,-0.655ZM0.42,-0.252L0.248,-0.252L0.333,-0.445L0.42,-0.252Z" style="fill:url(#_Linear1);fill-rule:nonzero;"/>
            </g>
            <g transform="matrix(144,0,0,144,208.08,219.46)">
                <path d="M0.196,-0.602C0.196,-0.562 0.164,-0.53 0.124,-0.53C0.084,-0.53 0.051,-0.562 0.051,-0.602C0.051,-0.641 0.084,-0.673 0.124,-0.673C0.164,-0.673 0.196,-0.641 0.196,-0.602ZM0.124,-0C0.08,-0 0.045,-0.036 0.045,-0.079L0.045,-0.421C0.045,-0.464 0.08,-0.5 0.124,-0.5C0.167,-0.5 0.202,-0.464 0.202,-0.421L0.202,-0.079C0.202,-0.036 0.167,-0 0.124,-0Z" style="fill:url(#_Linear2);fill-rule:nonzero;"/>
            </g>
            <g transform="matrix(144,0,0,144,243.648,219.46)">
                <path d="M0.213,0.001C0.163,0.001 0.103,-0.017 0.063,-0.044C0.029,-0.067 0.019,-0.113 0.043,-0.147C0.066,-0.181 0.112,-0.19 0.146,-0.167C0.192,-0.136 0.279,-0.143 0.286,-0.211C0.289,-0.234 0.278,-0.258 0.26,-0.271C0.238,-0.287 0.207,-0.288 0.183,-0.299C0.154,-0.31 0.127,-0.328 0.105,-0.35C0.064,-0.388 0.041,-0.437 0.039,-0.486C0.039,-0.514 0.044,-0.541 0.054,-0.568C0.064,-0.592 0.079,-0.614 0.097,-0.634C0.116,-0.653 0.137,-0.668 0.16,-0.679C0.186,-0.691 0.212,-0.698 0.239,-0.7C0.276,-0.701 0.331,-0.693 0.371,-0.669C0.407,-0.647 0.418,-0.602 0.398,-0.566C0.376,-0.531 0.331,-0.52 0.296,-0.541C0.271,-0.555 0.235,-0.555 0.212,-0.537C0.199,-0.527 0.19,-0.51 0.19,-0.494C0.188,-0.435 0.263,-0.434 0.302,-0.418C0.332,-0.405 0.36,-0.386 0.382,-0.361C0.416,-0.323 0.436,-0.275 0.437,-0.223C0.439,-0.164 0.417,-0.109 0.375,-0.067C0.336,-0.027 0.282,-0.003 0.226,-0C0.222,-0 0.217,0.001 0.213,0.001Z" style="fill:url(#_Linear3);fill-rule:nonzero;"/>
            </g>
            <g transform="matrix(144,0,0,144,310.896,219.46)">
                <path d="M0.27,-0C0.236,-0 0.203,-0.006 0.173,-0.019C0.143,-0.032 0.116,-0.05 0.093,-0.073C0.07,-0.096 0.052,-0.123 0.039,-0.152C0.027,-0.183 0.02,-0.216 0.02,-0.25C0.02,-0.283 0.027,-0.316 0.039,-0.348C0.052,-0.377 0.07,-0.403 0.093,-0.427C0.116,-0.45 0.143,-0.467 0.173,-0.48C0.203,-0.494 0.236,-0.5 0.27,-0.5C0.298,-0.5 0.325,-0.495 0.352,-0.486C0.378,-0.478 0.401,-0.465 0.422,-0.448C0.456,-0.422 0.463,-0.373 0.437,-0.338C0.421,-0.318 0.398,-0.307 0.374,-0.307C0.358,-0.307 0.341,-0.313 0.326,-0.324C0.31,-0.337 0.291,-0.343 0.27,-0.343C0.218,-0.343 0.177,-0.301 0.177,-0.25C0.177,-0.198 0.218,-0.157 0.27,-0.157C0.291,-0.157 0.31,-0.163 0.326,-0.176C0.361,-0.202 0.41,-0.196 0.436,-0.161C0.463,-0.127 0.456,-0.077 0.422,-0.051C0.379,-0.017 0.325,-0 0.27,-0Z" style="fill:url(#_Linear4);fill-rule:nonzero;"/>
            </g>
            <g transform="matrix(144,0,0,144,379.008,219.46)">
                <path d="M0.254,-0.499C0.251,-0.5 0.247,-0.5 0.243,-0.5C0.209,-0.5 0.175,-0.492 0.145,-0.477C0.133,-0.491 0.114,-0.499 0.094,-0.499C0.056,-0.499 0.025,-0.468 0.025,-0.43L0.025,-0.079C0.025,-0.035 0.06,-0 0.103,-0C0.147,-0 0.182,-0.035 0.182,-0.079L0.182,-0.281C0.182,-0.315 0.21,-0.342 0.243,-0.342L0.25,-0.342C0.292,-0.342 0.327,-0.375 0.329,-0.417C0.331,-0.461 0.297,-0.497 0.254,-0.499Z" style="fill:url(#_Linear5);fill-rule:nonzero;"/>
            </g>
            <g transform="matrix(144,0,0,144,428.544,219.46)">
                <path d="M0.196,-0.602C0.196,-0.562 0.164,-0.53 0.124,-0.53C0.084,-0.53 0.051,-0.562 0.051,-0.602C0.051,-0.641 0.084,-0.673 0.124,-0.673C0.164,-0.673 0.196,-0.641 0.196,-0.602ZM0.124,-0C0.08,-0 0.045,-0.036 0.045,-0.079L0.045,-0.421C0.045,-0.464 0.08,-0.5 0.124,-0.5C0.167,-0.5 0.202,-0.464 0.202,-0.421L0.202,-0.079C0.202,-0.036 0.167,-0 0.124,-0Z" style="fill:url(#_Linear6);fill-rule:nonzero;"/>
            </g>
            <g transform="matrix(144,0,0,144,464.112,219.46)">
                <path d="M0.276,-0.502C0.232,-0.502 0.19,-0.49 0.153,-0.47C0.141,-0.49 0.119,-0.502 0.094,-0.502C0.056,-0.502 0.025,-0.472 0.025,-0.433L0.025,0.079C0.025,0.122 0.061,0.158 0.105,0.158C0.148,0.158 0.184,0.122 0.184,0.079L0.184,-0.018C0.212,-0.006 0.244,-0 0.276,-0C0.415,-0 0.527,-0.112 0.527,-0.251C0.527,-0.39 0.415,-0.502 0.276,-0.502ZM0.342,-0.185C0.324,-0.167 0.301,-0.158 0.276,-0.158C0.251,-0.158 0.228,-0.167 0.21,-0.185C0.192,-0.202 0.182,-0.226 0.182,-0.251C0.182,-0.276 0.192,-0.3 0.21,-0.318C0.228,-0.335 0.251,-0.345 0.276,-0.345C0.301,-0.345 0.324,-0.335 0.342,-0.318C0.36,-0.3 0.37,-0.276 0.37,-0.251C0.37,-0.226 0.36,-0.202 0.342,-0.185Z" style="fill:url(#_Linear7);fill-rule:nonzero;"/>
            </g>
            <g transform="matrix(144,0,0,144,542.88,219.46)">
                <path d="M0.233,-0.157C0.205,-0.157 0.182,-0.18 0.182,-0.208L0.182,-0.361L0.242,-0.361C0.28,-0.361 0.311,-0.392 0.311,-0.43C0.311,-0.469 0.28,-0.5 0.242,-0.5L0.182,-0.5L0.182,-0.581C0.182,-0.624 0.147,-0.659 0.104,-0.659C0.06,-0.659 0.025,-0.624 0.025,-0.581L0.025,-0.208C0.025,-0.152 0.047,-0.1 0.086,-0.06C0.125,-0.022 0.177,-0 0.233,-0C0.276,-0 0.311,-0.035 0.311,-0.079C0.311,-0.122 0.276,-0.157 0.233,-0.157Z" style="fill:url(#_Linear8);fill-rule:nonzero;"/>
            </g>
        </g>
    </g>
    <defs>
        <linearGradient id="_Linear1" x1="0" y1="0" x2="1" y2="0" gradientUnits="userSpaceOnUse" gradientTransform="matrix(3.29059,9.86865e-17,-2.57343e-17,0.858082,0.0114057,-0.271041)"><stop offset="0" style="stop-color:rgb(130,233,122);stop-opacity:1"/><stop offset="1" style="stop-color:rgb(33,222,187);stop-opacity:1"/></linearGradient>
        <linearGradient id="_Linear2" x1="0" y1="0" x2="1" y2="0" gradientUnits="userSpaceOnUse" gradientTransform="matrix(3.29059,9.86865e-17,-2.57343e-17,0.858082,-0.654594,-0.271041)"><stop offset="0" style="stop-color:rgb(130,233,122);stop-opacity:1"/><stop offset="1" style="stop-color:rgb(33,222,187);stop-opacity:1"/></linearGradient>
        <linearGradient id="_Linear3" x1="0" y1="0" x2="1" y2="0" gradientUnits="userSpaceOnUse" gradientTransform="matrix(3.29059,9.86865e-17,-2.57343e-17,0.858082,-0.901594,-0.271041)"><stop offset="0" style="stop-color:rgb(130,233,122);stop-opacity:1"/><stop offset="1" style="stop-color:rgb(33,222,187);stop-opacity:1"/></linearGradient>
        <linearGradient id="_Linear4" x1="0" y1="0" x2="1" y2="0" gradientUnits="userSpaceOnUse" gradientTransform="matrix(3.29059,9.86865e-17,-2.57343e-17,0.858082,-1.36859,-0.271041)"><stop offset="0" style="stop-color:rgb(130,233,122);stop-opacity:1"/><stop offset="1" style="stop-color:rgb(33,222,187);stop-opacity:1"/></linearGradient>
        <linearGradient id="_Linear5" x1="0" y1="0" x2="1" y2="0" gradientUnits="userSpaceOnUse" gradientTransform="matrix(3.29059,9.86865e-17,-2.57343e-17,0.858082,-1.84159,-0.271041)"><stop offset="0" style="stop-color:rgb(130,233,122);stop-opacity:1"/><stop offset="1" style="stop-color:rgb(33,222,187);stop-opacity:1"/></linearGradient>
        <linearGradient id="_Linear6" x1="0" y1="0" x2="1" y2="0" gradientUnits="userSpaceOnUse" gradientTransform="matrix(3.29059,9.86865e-17,-2.57343e-17,0.858082,-2.18559,-0.271041)"><stop offset="0" style="stop-color:rgb(130,233,122);stop-opacity:1"/><stop offset="1" style="stop-color:rgb(33,222,187);stop-opacity:1"/></linearGradient>
        <linearGradient id="_Linear7" x1="0" y1="0" x2="1" y2="0" gradientUnits="userSpaceOnUse" gradientTransform="matrix(3.29059,9.86865e-17,-2.57343e-17,0.858082,-2.43259,-0.271041)"><stop offset="0" style="stop-color:rgb(130,233,122);stop-opacity:1"/><stop offset="1" style="stop-color:rgb(33,222,187);stop-opacity:1"/></linearGradient>
        <linearGradient id="_Linear8" x1="0" y1="0" x2="1" y2="0" gradientUnits="userSpaceOnUse" gradientTransform="matrix(3.29059,9.86865e-17,-2.57343e-17,0.858082,-2.97959,-0.271041)"><stop offset="0" style="stop-color:rgb(130,233,122);stop-opacity:1"/><stop offset="1" style="stop-color:rgb(33,222,187);stop-opacity:1"/></linearGradient>
    </defs>
</svg>
