<?xml version="1.0" encoding="UTF-8" standalone="no"?>
<!DOCTYPE svg PUBLIC "-//W3C//DTD SVG 1.1//EN" "http://www.w3.org/Graphics/SVG/1.1/DTD/svg11.dtd">
<svg width="100%" height="100%" viewBox="0 0 1024 1024" version="1.1" xmlns="http://www.w3.org/2000/svg" xmlns:xlink="http://www.w3.org/1999/xlink" xml:space="preserve" xmlns:serif="http://www.serif.com/" style="fill-rule:evenodd;clip-rule:evenodd;stroke-linejoin:round;stroke-miterlimit:2;">
    <g transform="matrix(1,0,0,1,-132.959,296.667)">
        <path d="M436.539,244.148C436.539,248.114 435.122,251.514 432.289,254.348C429.455,257.181 426.055,258.598 422.089,258.598L393.359,258.598C381.572,258.598 371.429,254.376 362.929,245.933C354.429,237.489 350.179,227.318 350.179,215.418C350.179,203.518 354.4,193.374 362.844,184.988C371.287,176.601 381.402,172.408 393.189,172.408C405.089,172.408 415.289,176.601 423.789,184.988C432.289,193.374 436.539,203.518 436.539,215.418L436.539,244.148ZM407.639,215.418C407.639,211.564 406.25,208.249 403.474,205.473C400.697,202.696 397.325,201.308 393.359,201.308C389.392,201.308 386.02,202.696 383.244,205.473C380.467,208.249 379.079,211.564 379.079,215.418C379.079,219.384 380.467,222.756 383.244,225.533C386.02,228.309 389.335,229.698 393.189,229.698L407.469,229.698L407.639,215.418Z" style="fill:url(#_Linear1);fill-rule:nonzero;"/>
        <path d="M473.939,157.618C473.939,161.584 472.522,164.984 469.689,167.818C466.855,170.651 463.455,172.068 459.489,172.068C455.522,172.068 452.094,170.651 449.204,167.818C446.314,164.984 444.869,161.584 444.869,157.618C444.869,153.651 446.285,150.251 449.119,147.418C451.952,144.584 455.352,143.168 459.319,143.168C463.285,143.168 466.714,144.584 469.604,147.418C472.494,150.251 473.939,153.651 473.939,157.618ZM473.939,244.148C473.939,248.114 472.522,251.514 469.689,254.348C466.855,257.181 463.455,258.598 459.489,258.598C455.522,258.598 452.094,257.181 449.204,254.348C446.314,251.514 444.869,248.114 444.869,244.148L444.869,197.228C444.869,193.261 446.285,189.861 449.119,187.028C451.952,184.194 455.352,182.778 459.319,182.778C463.285,182.778 466.714,184.194 469.604,187.028C472.494,189.861 473.939,193.261 473.939,197.228L473.939,244.148Z" style="fill:url(#_Linear2);fill-rule:nonzero;"/>
        <path d="M568.119,186.688C568.119,190.654 566.702,194.054 563.869,196.888C561.035,199.721 557.635,201.138 553.669,201.138L522.729,201.138C518.195,201.138 514.682,202.781 512.189,206.068C510.262,209.014 508.335,212.018 506.409,215.078C503.802,218.364 500.232,220.008 495.699,220.008C491.732,220.008 488.332,218.591 485.499,215.758C482.665,212.924 481.249,209.524 481.249,205.558C481.249,203.971 481.532,202.328 482.099,200.628C484.932,192.241 490.174,185.413 497.824,180.143C505.474,174.873 513.775,172.238 522.729,172.238L553.669,172.238C557.635,172.238 561.035,173.654 563.869,176.488C566.702,179.321 568.119,182.721 568.119,186.688ZM567.949,225.278C567.949,226.978 567.665,228.621 567.099,230.208C564.152,238.594 558.91,245.423 551.374,250.693C543.837,255.963 535.592,258.598 526.639,258.598L495.699,258.598C491.732,258.598 488.332,257.181 485.499,254.348C482.665,251.514 481.249,248.114 481.249,244.148C481.249,240.181 482.665,236.781 485.499,233.948C488.332,231.114 491.732,229.698 495.699,229.698L526.639,229.698C532.872,229.698 537.292,226.553 539.899,220.263C542.505,213.973 547.039,210.828 553.499,210.828C557.465,210.828 560.865,212.244 563.699,215.078C566.532,217.911 567.949,221.311 567.949,225.278Z" style="fill:url(#_Linear3);fill-rule:nonzero;"/>
        <path d="M659.579,244.148C659.579,248.114 658.162,251.514 655.329,254.348C652.495,257.181 649.095,258.598 645.129,258.598L617.249,258.598C605.349,258.598 595.149,254.376 586.649,245.933C578.149,237.489 573.899,227.318 573.899,215.418C573.899,203.518 578.12,193.374 586.564,184.988C595.007,176.601 605.179,172.408 617.079,172.408L644.959,172.408C648.925,172.408 652.354,173.824 655.244,176.658C658.134,179.491 659.579,182.891 659.579,186.858C659.579,190.824 658.162,194.224 655.329,197.058C652.495,199.891 649.095,201.308 645.129,201.308L617.249,201.308C613.282,201.308 609.882,202.696 607.049,205.473C604.215,208.249 602.799,211.564 602.799,215.418C602.799,219.271 604.215,222.614 607.049,225.448C609.882,228.281 613.225,229.698 617.079,229.698L644.959,229.698C648.925,229.698 652.354,231.114 655.244,233.948C658.134,236.781 659.579,240.181 659.579,244.148Z" style="fill:url(#_Linear4);fill-rule:nonzero;"/>
        <path d="M743.049,186.688C743.049,190.654 741.632,194.054 738.799,196.888C735.965,199.721 732.565,201.138 728.599,201.138L707.349,201.138C703.495,201.138 700.152,202.526 697.319,205.303C694.485,208.079 693.069,211.451 693.069,215.418L693.069,244.148C693.069,248.114 691.652,251.514 688.819,254.348C685.985,257.181 682.585,258.598 678.619,258.598C674.652,258.598 671.224,257.181 668.334,254.348C665.444,251.514 663.999,248.114 663.999,244.148L663.999,215.418C663.999,203.518 668.22,193.346 676.664,184.903C685.107,176.459 695.279,172.238 707.179,172.238L728.429,172.238C732.395,172.238 735.824,173.654 738.714,176.488C741.604,179.321 743.049,182.721 743.049,186.688Z" style="fill:url(#_Linear5);fill-rule:nonzero;"/>
        <path d="M778.069,157.618C778.069,161.584 776.652,164.984 773.819,167.818C770.985,170.651 767.585,172.068 763.619,172.068C759.652,172.068 756.224,170.651 753.334,167.818C750.444,164.984 748.999,161.584 748.999,157.618C748.999,153.651 750.415,150.251 753.249,147.418C756.082,144.584 759.482,143.168 763.449,143.168C767.415,143.168 770.844,144.584 773.734,147.418C776.624,150.251 778.069,153.651 778.069,157.618ZM778.069,244.148C778.069,248.114 776.652,251.514 773.819,254.348C770.985,257.181 767.585,258.598 763.619,258.598C759.652,258.598 756.224,257.181 753.334,254.348C750.444,251.514 748.999,248.114 748.999,244.148L748.999,197.228C748.999,193.261 750.415,189.861 753.249,187.028C756.082,184.194 759.482,182.778 763.449,182.778C767.415,182.778 770.844,184.194 773.734,187.028C776.624,189.861 778.069,193.261 778.069,197.228L778.069,244.148Z" style="fill:url(#_Linear6);fill-rule:nonzero;"/>
        <path d="M871.569,215.418C871.569,227.318 867.375,237.461 858.989,245.848C850.602,254.234 840.459,258.428 828.559,258.428L814.279,258.428L814.279,273.048C814.279,277.014 812.862,280.414 810.029,283.248C807.195,286.081 803.795,287.498 799.829,287.498C795.862,287.498 792.462,286.081 789.629,283.248C786.795,280.414 785.379,277.014 785.379,273.048L785.379,215.418C785.379,203.518 789.6,193.346 798.044,184.903C806.487,176.459 816.659,172.238 828.559,172.238C840.459,172.238 850.602,176.459 858.989,184.903C867.375,193.346 871.569,203.518 871.569,215.418ZM842.669,215.418C842.669,211.451 841.28,208.079 838.504,205.303C835.727,202.526 832.412,201.138 828.559,201.138C824.705,201.138 821.362,202.526 818.529,205.303C815.695,208.079 814.279,211.451 814.279,215.418L814.279,229.528L828.559,229.528C832.525,229.528 835.869,228.139 838.589,225.363C841.309,222.586 842.669,219.271 842.669,215.418Z" style="fill:url(#_Linear7);fill-rule:nonzero;"/>
        <path d="M939.739,244.148C939.739,248.114 938.322,251.514 935.489,254.348C932.655,257.181 929.255,258.598 925.289,258.598L921.719,258.598C909.819,258.598 899.619,254.376 891.119,245.933C882.619,237.489 878.369,227.318 878.369,215.418L878.369,157.788C878.369,153.821 879.814,150.421 882.704,147.588C885.594,144.754 889.022,143.338 892.989,143.338C896.955,143.338 900.355,144.754 903.189,147.588C906.022,150.421 907.439,153.821 907.439,157.788L907.439,172.238L925.289,172.238C929.255,172.238 932.655,173.654 935.489,176.488C938.322,179.321 939.739,182.721 939.739,186.688C939.739,190.654 938.322,194.054 935.489,196.888C932.655,199.721 929.255,201.138 925.289,201.138L907.269,201.138L907.269,215.418C907.269,219.271 908.685,222.614 911.519,225.448C914.352,228.281 917.695,229.698 921.549,229.698L925.289,229.698C929.255,229.698 932.655,231.114 935.489,233.948C938.322,236.781 939.739,240.181 939.739,244.148Z" style="fill:url(#_Linear8);fill-rule:nonzero;"/>
    </g>
    <path d="M1024,61.44C1024,27.53 996.47,0 962.56,0L61.44,0C27.53,0 0,27.53 0,61.44L0,962.56C0,996.47 27.53,1024 61.44,1024L962.56,1024C996.47,1024 1024,996.47 1024,962.56L1024,61.44ZM1008,61.44L1008,962.56C1008,987.639 987.639,1008 962.56,1008L61.44,1008C36.361,1008 16,987.639 16,962.56L16,61.44C16,36.361 36.361,16 61.44,16L962.56,16C987.639,16 1008,36.361 1008,61.44Z" style="fill:url(#_Linear9);"/>
    <defs>
        <linearGradient id="_Linear1" x1="0" y1="0" x2="1" y2="0" gradientUnits="userSpaceOnUse" gradientTransform="matrix(315.925,0,0,82.3639,346.82,232.578)"><stop offset="0" style="stop-color:rgb(71,116,158);stop-opacity:1"/><stop offset="1" style="stop-color:rgb(192,139,174);stop-opacity:1"/></linearGradient>
        <linearGradient id="_Linear2" x1="0" y1="0" x2="1" y2="0" gradientUnits="userSpaceOnUse" gradientTransform="matrix(315.925,0,0,82.3639,346.82,232.578)"><stop offset="0" style="stop-color:rgb(71,116,158);stop-opacity:1"/><stop offset="1" style="stop-color:rgb(192,139,174);stop-opacity:1"/></linearGradient>
        <linearGradient id="_Linear3" x1="0" y1="0" x2="1" y2="0" gradientUnits="userSpaceOnUse" gradientTransform="matrix(315.925,0,0,82.3639,346.82,232.578)"><stop offset="0" style="stop-color:rgb(71,116,158);stop-opacity:1"/><stop offset="1" style="stop-color:rgb(192,139,174);stop-opacity:1"/></linearGradient>
        <linearGradient id="_Linear4" x1="0" y1="0" x2="1" y2="0" gradientUnits="userSpaceOnUse" gradientTransform="matrix(315.925,0,0,82.3639,346.82,232.578)"><stop offset="0" style="stop-color:rgb(71,116,158);stop-opacity:1"/><stop offset="1" style="stop-color:rgb(192,139,174);stop-opacity:1"/></linearGradient>
        <linearGradient id="_Linear5" x1="0" y1="0" x2="1" y2="0" gradientUnits="userSpaceOnUse" gradientTransform="matrix(315.925,0,0,82.3639,346.82,232.578)"><stop offset="0" style="stop-color:rgb(71,116,158);stop-opacity:1"/><stop offset="1" style="stop-color:rgb(192,139,174);stop-opacity:1"/></linearGradient>
        <linearGradient id="_Linear6" x1="0" y1="0" x2="1" y2="0" gradientUnits="userSpaceOnUse" gradientTransform="matrix(315.925,0,0,82.3639,346.82,232.578)"><stop offset="0" style="stop-color:rgb(71,116,158);stop-opacity:1"/><stop offset="1" style="stop-color:rgb(192,139,174);stop-opacity:1"/></linearGradient>
        <linearGradient id="_Linear7" x1="0" y1="0" x2="1" y2="0" gradientUnits="userSpaceOnUse" gradientTransform="matrix(315.925,0,0,82.3639,346.82,232.578)"><stop offset="0" style="stop-color:rgb(71,116,158);stop-opacity:1"/><stop offset="1" style="stop-color:rgb(192,139,174);stop-opacity:1"/></linearGradient>
        <linearGradient id="_Linear8" x1="0" y1="0" x2="1" y2="0" gradientUnits="userSpaceOnUse" gradientTransform="matrix(315.925,0,0,82.3639,346.82,232.578)"><stop offset="0" style="stop-color:rgb(71,116,158);stop-opacity:1"/><stop offset="1" style="stop-color:rgb(192,139,174);stop-opacity:1"/></linearGradient>
        <linearGradient id="_Linear9" x1="0" y1="0" x2="1" y2="0" gradientUnits="userSpaceOnUse" gradientTransform="matrix(1024,0,0,1024,0,512)"><stop offset="0" style="stop-color:rgb(71,116,158);stop-opacity:1"/><stop offset="1" style="stop-color:rgb(192,139,174);stop-opacity:1"/></linearGradient>
    </defs>
</svg>
